<?xml version="1.0" encoding="UTF-8" standalone="no"?>
<svg
   xmlns:dc="http://purl.org/dc/elements/1.1/"
   xmlns:cc="http://creativecommons.org/ns#"
   xmlns:rdf="http://www.w3.org/1999/02/22-rdf-syntax-ns#"
   xmlns:svg="http://www.w3.org/2000/svg"
   xmlns="http://www.w3.org/2000/svg"
   xmlns:sodipodi="http://sodipodi.sourceforge.net/DTD/sodipodi-0.dtd"
   xmlns:inkscape="http://www.inkscape.org/namespaces/inkscape"
   viewBox="0 0 512 512"
   version="1.1"
   id="svg897"
   sodipodi:docname="palomicon.svg"
   inkscape:version="1.0.2 (e86c870879, 2021-01-15)">
  <metadata
     id="metadata903">
    <rdf:RDF>
      <cc:Work
         rdf:about="">
        <dc:format>image/svg+xml</dc:format>
        <dc:type
           rdf:resource="http://purl.org/dc/dcmitype/StillImage" />
        <dc:title></dc:title>
      </cc:Work>
    </rdf:RDF>
  </metadata>
  <defs
     id="defs901" />
  <sodipodi:namedview
     pagecolor="#ffffff"
     bordercolor="#666666"
     borderopacity="1"
     objecttolerance="10"
     gridtolerance="10"
     guidetolerance="10"
     inkscape:pageopacity="0"
     inkscape:pageshadow="2"
     inkscape:window-width="1366"
     inkscape:window-height="704"
     id="namedview899"
     showgrid="false"
     inkscape:zoom="0.49511719"
     inkscape:cx="600.95854"
     inkscape:cy="468.12272"
     inkscape:window-x="0"
     inkscape:window-y="27"
     inkscape:window-maximized="1"
     inkscape:current-layer="svg897" />
  <!--! Font Awesome Free 6.0.0-beta2 by @fontawesome - https://fontawesome.com License - https://fontawesome.com/license/free (Icons: CC BY 4.0, Fonts: SIL OFL 1.1, Code: MIT License) -->
  <g
     inkscape:groupmode="layer"
     id="layer1"
     inkscape:label="flag" />
  <g
     inkscape:groupmode="layer"
     id="layer2"
     inkscape:label="yellow">
    <path
       id="path895-6"
       d="m 216.83985,0.296874 c -4.35955,-0.12708 -8.77461,1.569938 -12.03711,5.507813 -22,24.879 -37.70039,54.219843 -48.90039,86.589843 34.2,38.23 80.00078,64.62891 130.80078,75.12891 v -28.09961 c -28.25,-36.38 -47.13086,-79.289221 -54.13086,-125.199221 C 231.21602,5.790484 224.10577,0.508675 216.83985,0.296874 Z M 70.29297,32.335937 c -5.55897,0.1726 -10.88476,3.076172 -13.58007,8.818359 -16.63,35.13 -26,74.369534 -26,115.769534 0,29.76242 6.05413,58.70038 16.84179,85.89648 H 478.7129 l 0.002,-114.58203 31.09956,-63.990234 -111.11133,0.04687 c -44.25,0 -79.09961,35.820079 -79.09961,80.080079 l 0.002,59.43945 c -104.4,-6.251 -193,-70.46117 -233,-161.70117 -3.41136,-6.661875 -10.01232,-9.972956 -16.3125,-9.777343 z m 328.41016,96.027343 c 8.749,0 15.99023,7.13772 15.99023,16.01172 0.01,8.75 -7.19023,16.04883 -15.99023,16.04883 -8.75,0 -16.00977,-7.25877 -16.00977,-16.00977 0,-8.876 7.26077,-16.05078 16.00977,-16.05078 z"
       style="fill:#000000"
       inkscape:export-xdpi="96"
       inkscape:export-ydpi="96" />
  </g>
  <path
     id="path895-7"
     d="m 61.67187,242.82027 c 14.85996,37.4625 38.71873,71.61384 68.26758,100.00391 13.12,12.75 26.13086,23.26953 38.88086,32.76953 l -54.85938,13.69922 h 343.06055 c 22.38504,-27.50151 35.8086,-62.59026 35.8086,-100.85547 v -45.61719 z"
     style="fill:#000000"
     inkscape:export-xdpi="96"
     inkscape:export-ydpi="96" />
  <path
     id="path895-5"
     d="m 112.92578,389.29297 -87.72461,21.90625 c -10.75,2.75 -15.5,15.0907 -9.5,24.4707 17.38,26.88 60.42117,72.54102 153.20117,76.29102 8,0.25 15.98914,-2.63477 22.11914,-7.88477 l 65.23047,-56.11914 76.83985,0.0566 c 49.97796,0 94.5911,-22.86676 123.92968,-58.7207 z"
     style="fill:#000000"
     inkscape:export-xdpi="96"
     inkscape:export-ydpi="96" />
  <g
     id="g1139"
     inkscape:export-xdpi="96"
     inkscape:export-ydpi="96">
    <path
       id="path895-6-5"
       d="m 194.34775,4.9512334 c -4.35955,-0.12708 -8.77461,1.56994 -12.03711,5.5078196 -22,24.879 -37.70039,54.21984 -48.90039,86.58984 34.2,38.229997 80.00078,64.628907 130.80078,75.128907 v -28.09961 c -28.25,-36.38 -47.13086,-79.289217 -54.13086,-125.199217 -1.35625,-8.43413 -8.4665,-13.7159296 -15.73242,-13.9277396 z M 47.800874,36.990303 c -5.55897,0.1726 -10.88476,3.07617 -13.58007,8.81836 -16.63,35.13 -25.9999999,74.369527 -25.9999999,115.769527 0,29.76242 6.0541299,58.70038 16.8417899,85.89648 H 456.2208 l 0.002,-114.58203 31.09956,-63.990227 -111.11133,0.0469 c -44.25,0 -79.09961,35.820067 -79.09961,80.080077 l 0.002,59.43944 c -104.4,-6.251 -193,-70.46117 -232.999996,-161.701167 -3.41136,-6.66187 -10.01232,-9.97295 -16.3125,-9.77734 z M 376.21103,133.01764 c 8.749,0 15.99023,7.13772 15.99023,16.01172 0.01,8.75 -7.19023,16.04883 -15.99023,16.04883 -8.75,0 -16.00977,-7.25877 -16.00977,-16.00977 0,-8.876 7.26077,-16.05078 16.00977,-16.05078 z"
       style="fill:#ffff00" />
    <path
       id="path895-7-6"
       d="m 25.06259,247.47467 c 14.85996,37.4625 38.71873,71.61384 68.26758,100.00391 13.12,12.75 26.13086,23.26953 38.88086,32.76953 L 77.35165,393.94733 H 420.4122 c 22.38504,-27.50151 35.8086,-62.59026 35.8086,-100.85547 v -45.61719 z"
       style="fill:#0000ff" />
    <path
       id="path895-5-2"
       d="m 77.35165,393.94733 -87.72461,21.90625 c -10.75,2.75 -15.5,15.0907 -9.5,24.4707 17.38,26.88 60.42117,72.54102 153.20118,76.29102 8,0.25 15.98914,-2.63477 22.11914,-7.88477 l 65.23047,-56.11914 76.83985,0.0566 c 49.97796,0 94.5911,-22.86676 123.92968,-58.7207 z"
       style="fill:#ff0000" />
  </g>
</svg>
